<svg xmlns="http://www.w3.org/2000/svg" viewBox="0 0 42 41"><path fill-rule="nonzero" d="M39.183 10.46595c-1.87789-3.21967-4.4251-5.7687-7.64235-7.64763C28.32294.93928 24.81015 0 20.99981 0c-3.80987 0-7.3238.93957-10.54085 2.81832-3.21752 1.87884-5.76465 4.42796-7.64253 7.64763C.93884 13.68553 0 17.20133 0 21.01327c0 4.579 1.33505 8.69655 4.00581 12.35371 2.67048 3.65745 6.12035 6.18826 10.3493 7.59272.49227.09143.85668.02712 1.09362-.19128.23703-.2187.3554-.4926.3554-.82054 0-.05473-.00469-.54703-.01379-1.4775-.00938-.93045-.01379-1.74218-.01379-2.43478l-.62893.10887c-.40099.0735-.90685.10465-1.51758.09584-.61045-.00853-1.24416-.07255-1.9003-.19158-.6564-.11797-1.26695-.39158-1.8321-.82025-.56485-.42867-.96584-.98978-1.20288-1.68248l-.27342-.62964c-.18225-.41918-.46918-.88484-.86118-1.39526-.39199-.5109-.78838-.85724-1.18938-1.03962l-.19144-.13714c-.12757-.09114-.24594-.20106-.3554-.32861-.10938-.12756-.19126-.25521-.24595-.38306-.05478-.12794-.00938-.23288.13667-.3152.14605-.08232.41-.12228.79298-.12228l.54666.08174c.3646.07312.81559.29153 1.35353.65657.53766.36475.97965.83894 1.32605 1.42238.41948.7481.92486 1.31812 1.51759 1.71037.59225.39225 1.18938.58804 1.79082.58804s1.1209-.04561 1.55858-.13637c.4372-.09123.84738-.22837 1.23037-.41065.16405-1.22267.61073-2.16195 1.33964-2.81851-1.03892-.10925-1.97298-.2738-2.80264-.4926-.82919-.21907-1.68605-.57462-2.57002-1.0676-.88444-.4923-1.61814-1.10363-2.2013-1.83294-.58324-.72968-1.0619-1.68765-1.43531-2.87303-.3736-1.18587-.56046-2.55382-.56046-4.10424 0-2.20756.7202-4.08611 2.16031-5.63673-.6746-1.65967-.61092-3.5202.19126-5.58143.52865-.16435 1.31263-.04102 2.35156.36925 1.03911.41047 1.79992.76208 2.28318 1.05361.48326.29144.87046.5384 1.16218.7387 1.69563-.4741 3.44546-.7112 5.24998-.7112 1.80451 0 3.55473.2371 5.25045.7112l1.03902-.65637c.71053-.43797 1.54958-.83933 2.51514-1.20417.96614-.36465 1.70492-.46509 2.21557-.30073.81999 2.06132.89306 3.92176.21826 5.58143 1.44001 1.55061 2.1605 3.42965 2.1605 5.63673 0 1.55042-.18752 2.92268-.56055 4.11765-.3735 1.19516-.85629 2.15217-1.44854 2.87304-.59292.72077-1.33131 1.32731-2.21528 1.81952-.88415.4926-1.7413.84814-2.57049 1.06722-.82957.21908-1.76362.38372-2.80255.49317.94756.82054 1.42144 2.11575 1.42144 3.88505v5.77282c0 .32795.11396.60175.34209.82054.22784.2184.58765.28271 1.07991.19119 4.22954-1.40427 7.6794-3.93518 10.34979-7.59263C40.66448 29.70905 42 25.59151 42 21.01251c-.00096-3.81146-.94028-7.32698-2.817-10.54656z"/></svg>