<svg xmlns="http://www.w3.org/2000/svg" viewBox="0 0 126 162"><g fill="none" fill-rule="nonzero"><path fill="#334F55" d="M77.90864 0H48.09168C21.72776 0 .28004 21.43733.28004 47.78676v44.79993c0 1.64934 1.33717 2.98651 2.98651 2.98651h8.95986v29.86673c0 19.76184 16.065 35.84007 35.81077 35.84007h29.925c19.74578 0 35.81078-16.07823 35.81078-35.84007V95.5732h8.95986c1.64934 0 2.98651-1.33717 2.98651-2.98651V47.78676C125.71998 21.43733 104.27224 0 77.90864 0z"/><path fill="#EAE8D2" d="M65.98651 101.54655v-5.97334h35.65927l-1.92371 32.7222c-.39218 6.66004-6.14408 12.07804-12.82144 12.07804H77.9332v-8.95986c0-1.64934-1.33717-2.98651-2.98651-2.98651H54.04014c-1.64934 0-2.98652 1.33717-2.98652 2.98651v8.95986H39.0997c-6.67769 0-12.42927-5.41768-12.82176-12.07805l-1.92339-32.7222H60.0138v5.97335h5.97271z"/><path fill="#83A6E2" d="M48.09137 5.97335h29.81695c18.91449 0 34.91775 12.61732 40.07619 29.86672H8.01549c5.15813-17.2494 21.1617-29.86672 40.07588-29.86672zM119.2694 41.8134c.14206.98627.2542 1.97978.32602 2.98652H6.40458c.07182-1.00706.18396-2.00057.32602-2.98652h112.5388zm-11.46947 83.62652c0 16.46883-13.38466 29.86673-29.83743 29.86673h-29.925c-16.45277 0-29.83743-13.3979-29.83743-29.86673V95.5732h.17104l1.94481 33.07217c.57457 9.76059 9.00082 17.70111 18.78346 17.70111h14.94076c1.64934 0 2.98651-1.33718 2.98651-2.98652v-8.95986h14.93321v8.95986c0 1.64935 1.33717 2.98652 2.98651 2.98652h11.95394c9.78264 0 18.20889-7.94052 18.78345-17.70111l1.94481-33.07217h.17136l-.00032 29.86673h.00032z"/><path fill="#334F55" d="M45.07997 110.50673h35.84006v5.97334H45.07997v-5.97334zm11.94668 8.95985h14.93321v5.97335h-14.9332v-5.97335z"/><path fill="#83A6E2" d="M119.747 89.6H6.253V50.773h113.494z"/><path fill="#334F55" d="M27.13378 83.62651h71.73243c4.92629 0 8.93372-4.01908 8.93372-8.95985 0-4.94078-4.00743-8.95986-8.93372-8.95986H27.1338c-4.92629 0-8.93372 4.01908-8.93372 8.95986 0 4.94077 4.00743 8.95986 8.93371 8.95986z"/><path fill="#C5D35E" d="M27.13378 71.68014h71.73243c1.65974 0 2.96037 1.3126 2.96037 2.98652 0 1.6465-1.32867 2.98651-2.96037 2.98651H27.1338c-1.65943 0-2.96038-1.3126-2.96038-2.98651 0-1.64651 1.32836-2.98652 2.96037-2.98652z"/></g></svg>