<svg xmlns="http://www.w3.org/2000/svg" viewBox="0 0 230 202"><g fill="none" fill-rule="nonzero"><path fill="#293F44" d="M205.3572 111.30606c13.58887 0 24.6428 11.09512 24.6428 24.73463 0 13.6395-11.05393 24.73463-24.6428 24.73463-12.18685 0-22.3073-8.9331-24.27173-20.61212h-16.79943c-9.0585 0-16.42838 7.39149-16.42838 16.47563V202h-8.21442v-45.36117c0-13.6314 11.05393-24.72066 24.6428-24.72066h16.79943c1.96443-11.67857 12.08488-20.61211 24.27174-20.61211zm0 41.22468c9.0585 0 16.42839-7.39735 16.42839-16.4896 0-9.09226-7.36989-16.4896-16.42838-16.4896-9.0585 0-16.42838 7.39734-16.42838 16.4896 0 9.09225 7.36988 16.4896 16.42838 16.4896zM94.46442 49.46926c13.58887 0 24.6428 11.1073 24.6428 24.75898V202h-8.21442V74.22824c0-9.10624-7.36988-16.51395-16.42838-16.51395H76.5981c-3.39385 9.59139-12.49997 16.4896-23.2053 16.4896-13.58886 0-24.64279-11.09512-24.64279-24.73463s11.05438-24.73463 24.64324-24.73463c13.58887 0 24.6428 11.09512 24.6428 24.73463H94.4644zM53.3928 65.9593c9.0585 0 16.42838-7.39735 16.42838-16.4896s-7.36988-16.4896-16.42838-16.4896-16.42838 7.39735-16.42838 16.4896 7.36989 16.4896 16.42838 16.4896zm12.32162 45.34675c13.58887 0 24.6428 11.10323 24.64235 24.74906V202h-8.21442v-65.94488c0-9.10037-7.36988-16.50403-16.42838-16.50403H48.91453C46.9501 131.22966 36.82965 140.1632 24.6428 140.1632 11.05393 140.1632 0 129.06808 0 115.42857c0-13.6395 11.05393-24.73463 24.64324-24.73463 12.18686 0 22.3073 8.9331 24.27174 20.61212h16.79943zM24.6428 131.91817c9.0585 0 16.42883-7.39734 16.42883-16.4896 0-9.09225-7.37033-16.4896-16.42883-16.4896-9.0585 0-16.42838 7.39735-16.42838 16.4896 0 9.09226 7.36989 16.4896 16.42838 16.4896zm143.19657-49.46925c-10.99598 0-19.93993-8.98134-19.94038-20.02055V0h8.21442v62.42837c0 6.49376 5.26035 11.77552 11.72595 11.77552h13.24612c1.96443-11.67858 12.08488-20.61212 24.27174-20.61212C218.94607 53.59177 230 64.6869 230 78.3264s-11.05393 24.73463-24.6428 24.73463c-12.18685 0-22.3073-8.93309-24.27173-20.61211h-13.24611zM205.3572 61.8368c-9.0585 0-16.42838 7.39735-16.42838 16.4896 0 9.09226 7.36988 16.4896 16.42838 16.4896s16.42838-7.39734 16.42838-16.4896c0-9.09225-7.36989-16.4896-16.42838-16.4896z"/><path fill="#E5EDA8" d="M24.6428 98.93897c9.05849 0 16.42882 7.39735 16.42882 16.4896 0 9.09226-7.37033 16.4896-16.42883 16.4896-9.0585 0-16.42838-7.39734-16.42838-16.4896 0-9.09225 7.36989-16.4896 16.42838-16.4896zm28.75-65.95931c9.05849 0 16.42837 7.39734 16.42837 16.4896 0 9.09225-7.36988 16.4896-16.42838 16.4896s-16.42838-7.39735-16.42838-16.4896c0-9.09226 7.36989-16.4896 16.42838-16.4896zm151.9644 86.57143c9.0585 0 16.42839 7.39734 16.42839 16.4896 0 9.09225-7.36989 16.4896-16.42838 16.4896-9.0585 0-16.42838-7.39735-16.42838-16.4896 0-9.09226 7.36988-16.4896 16.42838-16.4896zm0-24.73463c-9.05849 0-16.42837-7.39735-16.42837-16.4896 0-9.09226 7.36988-16.48961 16.42838-16.48961s16.42838 7.39735 16.42838 16.4896c0 9.09226-7.36989 16.4896-16.42838 16.4896z"/></g></svg>