<svg xmlns="http://www.w3.org/2000/svg" viewBox="0 0 230 228"><g fill="none" fill-rule="nonzero"><path fill="#293F44" d="M228.60627 187.35818L126.48223 96.27324c12.56779-25.39973 7.59045-56.50139-12.6289-76.72432C96.32438 2.01996 70.6969-4.3248 46.99433 2.98263c-1.39573.43125-2.46217 1.56059-2.81616 2.97922-.34994 1.41819.06514 2.91588 1.0988 3.94953l42.0536 42.05137L51.96763 87.3275 9.914 45.27433c-1.03365-1.03185-2.53134-1.44693-3.95177-1.09879-1.4164.3522-2.54752 1.42043-2.97922 2.8184-7.30924 23.70887-.96043 49.32647 16.56808 66.85498 21.3343 21.3343 54.64971 25.53809 80.4973 10.6101l90.26063 101.1964c.76098.85667 1.8436 1.35934 2.99135 1.39169.04088.00224.07727.00224.11815.00224 1.10283 0 2.16523-.43754 2.94642-1.22097l32.41203-32.41428c.80994-.80994 1.25332-1.91906 1.22098-3.06457-.03234-1.14775-.53682-2.22813-1.39168-2.99135zm-127.76814-72.44326c-.78973 0-1.579.22191-2.2789.67742-22.94968 14.99133-53.69736 11.77582-73.11439-7.63717C11.80656 94.31734 5.90562 75.0854 9.25904 56.40463l39.7626 39.76214c1.56283 1.56284 4.33047 1.56284 5.89285 0l41.2558-41.25804c1.62797-1.62797 1.62797-4.26533 0-5.89285L56.40814 9.25552c18.67627-3.35746 37.91452 2.54752 51.5528 16.1858 18.39146 18.39372 22.37199 47.07184 9.682 69.73852-.95638 1.70524-.59835 3.84397.85892 5.14445l82.12347 73.24647-24.10418 24.10328-72.57398-81.3652c-.81399-.9155-1.95725-1.39392-3.10904-1.39392zM193.5937 216.8157l-11.51707-12.9119 24.77756-24.7762 12.9083 11.51302-26.16879 26.17508z"/><path fill="#E5EDA8" d="M65.7802 112.18412c26.42574 0 47.9267-21.49871 47.92625-47.92625 0-2.30135-1.86381-4.1674-4.1674-4.1674-2.3036 0-4.16741 1.86605-4.16741 4.1674 0 21.83068-17.76076 39.59144-39.59145 39.59144-2.30359 0-4.1674 1.86606-4.1674 4.1674 0 2.30135 1.86381 4.1674 4.1674 4.1674zm116.29644 91.71924l24.77756-24.77621 12.9083 11.51347-26.16879 26.17508-11.51707-12.91234zm18.5478-30.33215l-24.10419 24.10283-72.57353-81.36475c-.81399-.9155-1.9577-1.39392-3.1095-1.39392-.78927 0-1.579.22146-2.27888.67742-22.94969 14.99133-53.69736 11.77582-73.1144-7.63717C11.80611 94.3178 5.90473 75.08584 9.25814 56.40508l39.7626 39.76214c1.56238 1.56284 4.33002 1.56284 5.89285 0l41.2558-41.25804c1.62797-1.62752 1.62797-4.26489 0-5.89285L56.40725 9.25597c18.67671-3.35746 37.91496 2.54752 51.55279 16.1858 18.39146 18.39372 22.372 47.0714 9.68201 69.73852-.95639 1.70523-.59791 3.84396.8589 5.14445l82.12348 73.24647z"/></g></svg>