<svg xmlns="http://www.w3.org/2000/svg" viewBox="0 0 75 75"><path fill="#E5EDA8" fill-rule="nonzero" d="M37.5 0C16.78934 0 0 16.78927 0 37.5 0 58.2108 16.7894 75 37.5 75 58.2108 75 75 58.21073 75 37.5S58.2108 0 37.5 0zM8.0578 37.89091L37.10902 66.9422C21.15658 66.73427 8.26567 53.84336 8.0578 37.8909zm36.0329 28.31514L8.79395 30.9093C11.78695 17.81932 23.50265 8.05288 37.5 8.05288c9.78442 0 18.45262 4.77332 23.80744 12.11697l-4.07714 3.59749C52.88662 17.53821 45.6699 13.46153 37.5 13.46153c-10.4019 0-19.2599 6.60718-22.60806 15.8534l30.7932 30.7932c7.47812-2.70804 13.22944-9.02065 15.15565-16.8389H48.07694v-5.76916h13.46153v-.00014h5.40865V37.5c0 13.99736-9.76637 25.71304-22.85642 28.70605z"/></svg>