<svg xmlns="http://www.w3.org/2000/svg" viewBox="0 0 75 74"><path fill="#E5EDA8" fill-rule="nonzero" d="M30.81969 37.24516c0-3.66861 3.0048-6.64258 6.70731-6.64258 3.70252 0 6.70754 2.97397 6.70754 6.64258 0 3.66862-3.00502 6.64258-6.70754 6.64258s-6.70731-2.97396-6.70731-6.64258zm6.86633 23.75976c11.9351-.32759 20.37667-8.52943 23.03383-17.1366h-2.49211c-3.7304 0-6.75437-2.96965-6.75437-6.63287 0-3.66322 3.02397-6.63287 6.75437-6.63287h9.84347c3.1977 0 5.94516 2.18209 6.66461 5.11263a6.51923 6.51923 0 0 1 .18343 1.06757C76.26216 53.95764 60.7211 73.1557 38.36827 73.94702a6.68101 6.68101 0 0 1-.60818.04257C18.82337 74.45133.0941 59.5079.00552 36.8944c.0043.23097.01109.46216.02041.69335C-.72823 18.87164 15.04395.36905 37.24426.00569c3.6082-.14848 6.6546 2.62924 6.80447 6.20422.14965 3.57493-2.65365 6.59336-6.26185 6.74187-15.57554.6409-25.0842 12.73665-24.6213 24.22193a6.6329 6.6329 0 0 1-.0004.54499c.51678 14.25481 12.21062 23.45559 23.98236 23.3227a6.69357 6.69357 0 0 1 .53848-.03648z"/></svg>