<svg xmlns="http://www.w3.org/2000/svg" viewBox="0 0 218 38"><g fill="#E5EDA8" fill-rule="nonzero"><path d="M178.71317 35.99444c-1.18467-.6806-2.17028-1.66765-2.85637-2.86055-.2034-.295-.31898-.64306-.33298-1.00278-.00026-.46552.20145-.90757.5515-1.20861.29792-.31618.70365-.50497 1.13423-.52778.65366.06195 1.25184.39885 1.6493.9289.8132 1.3574 2.27404 2.17665 3.83972 2.15332 1.27082.03006 2.49908-.46526 3.40267-1.37222.91233-.87695 1.41847-2.10305 1.39437-3.37778V12.45556c-.00562-.48068.1935-.94044.5463-1.2614.3411-.34061.80127-.53037 1.2799-.52777.4835-.02394.95491.15778 1.30072.50139.33063.33885.50936.8007.49427 1.27722v16.30833c.01368 1.46177-.36587 2.89965-1.0978 4.1589-.72535 1.25492-1.76689 2.29142-3.01766 3.00305-1.31117.75317-2.79611 1.13931-4.30277 1.11889-1.39549.015-2.77019-.34364-3.9854-1.03973zm25.16105.27445c-1.45-.55839-2.78022-1.39525-3.91775-2.46472-.46905-.36508-.75019-.92574-.76482-1.52528.0056-.45604.19334-.89027.52028-1.20333.31139-.34015.74948-.5317 1.20707-.52778.38548-.00537.75816.14018 1.04057.40639.87886.85113 1.90088 1.53574 3.01766 2.02139 1.1233.45308 2.32408.67552 3.53275.65444 1.37658.0442 2.73442-.3328 3.89694-1.08194.96732-.55136 1.57343-1.58213 1.59208-2.7075.01815-1.209-.58492-2.34054-1.59208-2.98723-1.46137-.87052-3.06505-1.4676-4.7346-1.76277-2.5182-.52778-4.44845-1.3775-5.8064-2.565-1.35795-1.1875-2.02912-2.83417-2.02912-4.93473-.02868-1.3795.37183-2.73312 1.14463-3.8686.78586-1.12715 1.8673-2.00842 3.12172-2.5439 1.43474-.61396 2.97992-.91774 4.5369-.89194 1.45936-.0094 2.9089.24251 4.28196.74417 1.21106.41433 2.32133 1.0854 3.25699 1.9686.49972.37382.80881.95444.84286 1.58334-.00003.44728-.17829.87555-.49427 1.1875-.30259.34332-.73754.536-1.19146.52778-.30685.01196-.60658-.09569-.83766-.30084-.75907-.72224-1.65715-1.27747-2.63785-1.63083-1.01579-.4154-2.09938-.6338-3.19456-.64389-1.3717-.07155-2.73197.28585-3.89694 1.0239-.90466.60807-1.44863 1.63565-1.44863 2.73652s.54397 2.12844 1.44863 2.73653c1.3327.78833 2.7876 1.34156 4.30277 1.6361 1.6091.32125 3.17914.8185 4.68257 1.48306 1.13463.50895 2.1048 1.3321 2.79914 2.375.70346 1.19884 1.04532 2.58045.98335 3.97417.02033 1.37002-.3957 2.71013-1.18626 3.82111-.83176 1.14563-1.95107 2.04412-3.24138 2.60195-1.41834.62957-2.95239.9462-4.50048.92888-1.61079.03042-3.21404-.2305-4.7346-.77055zM86.58086 11.13611c.29705.31414.45651.73661.44224 1.17167v22.52555c.01238.4823-.16554.94966-.49427 1.29834-.32865.34972-.78817.54155-1.2643.52777a2.47527 2.47527 0 0 1-.78563-.12666c-.2322-.0726-.44075-.20756-.60353-.39056l-14.38592-19v17.8864c.01311.43646-.15205.85904-.45644 1.16781-.30439.30877-.72097.47632-1.15124.46301-.42611.01657-.83887-.15244-1.13423-.46444-.29384-.3137-.45129-.7339-.43704-1.16639V12.45556c-.0108-.48092.17798-.94433.52029-1.27723.32036-.33343.76388-.5153 1.22267-.50139a2.19915 2.19915 0 0 1 .84286.16362c.24371.09568.45757.2561.61915.46444l14.32348 19.04222V12.30778c-.01311-.43647.15205-.85905.45644-1.16782.30439-.30877.72097-.47632 1.15124-.46302.42497-.01592.83684.15081 1.13423.45917zm29.55227 0c.31114.35089.47536.81088.45785 1.2825v14.25c.0298 1.84186-.41116 3.66015-1.2799 5.27778-.82277 1.52615-2.04537 2.79192-3.53275 3.6575-1.54123.897-3.2908 1.35983-5.06759 1.34055-1.7927.02875-3.56094-.42468-5.12482-1.31416-1.49414-.86195-2.72266-2.12825-3.54835-3.6575-.86875-1.61763-1.3097-3.43592-1.2799-5.27778v-14.25c-.01359-.48298.17551-.94911.52028-1.2825.35099-.34827.82545-.5385 1.31632-.52778.4628.00032.90575.19071 1.22788.52778.34097.32726.5299.78533.52028 1.26139v14.25c-.01881 1.21658.28486 2.41596.87929 3.47278 1.12102 2.00462 3.21703 3.24406 5.48902 3.24583 1.14062.00823 2.2635-.28654 3.257-.855 1.00227-.56186 1.83635-1.3879 2.41412-2.39083.604-1.05354.91338-2.25419.8949-3.47278v-14.25c-.0169-.4678.13895-.92515.43704-1.2825.30734-.34902.75114-.54223 1.21226-.52778.45783-.01067.89788.17981 1.20707.5225zm28.1631 22.85278c.21948.30634.33456.67691.32778 1.05555.01925.47787-.17129.93982-.52029 1.2614-.322.30874-.74837.48061-1.19145.48027-.56952.0219-1.10937-.2579-1.42559-.73889l-7.11231-9.63194-6.95103 9.6161c-.31314.4889-.85087.78153-1.42558.77584-.42027.00943-.82548-.15881-1.11862-.46444-.29082-.27185-.45675-.6544-.45785-1.05556.00804-.44688.16378-.87807.44224-1.22444l7.50253-10.36028-7.53895-10.28111c-.2354-.3004-.36538-.67183-.3694-1.05556-.00962-.47606.17932-.93412.52029-1.26139.32212-.33707.76507-.52746 1.22787-.52777.27277.0014.54157.06642.78563.19.2579.12403.47873.31526.63996.55416L134.66053 20.9l6.96143-9.48417c.30728-.48252.82372-.78664 1.38916-.81805.44125.0024.86088.19414 1.15504.52778.31968.28971.50782.70005.52028 1.13472-.0123.38132-.1394.74968-.3642 1.05555l-7.6378 10.31278 7.61179 10.36028zm26.40453-22.85278c.34417.31837.53419.77328.52029 1.24556.0127.46593-.17764.91388-.52029 1.22444-.35227.30238-.80313.46048-1.2643.44333h-6.51398v20.8314c.00897.47593-.17986.93374-.52028 1.26138a1.98709 1.98709 0 0 1-2.67428 0c-.3388-.32877-.52733-.78582-.52028-1.26139V14.04944h-6.49838c-.46243.01782-.9137-.14674-1.2591-.45916-.33456-.32315-.51482-.7774-.49427-1.24556-.01472-.45631.16544-.89687.49428-1.2086.3454-.31243.79666-.477 1.25909-.45918h16.7272c.46388-.017.91647.14738 1.2643.45917zM41.0558 36.27944l.04683-.095a1.62658 1.62658 0 0 0 .11446-.2586c.14533-.40512.18477-.8415.11446-1.26667-.08097-.45855-.24314-.89842-.47866-1.29834L29.78639 13.6114l-1.69092-2.99778-1.68053 2.99778-11.06129 19.74944c-.21477.40467-.3591.84389-.42663 1.29834-.08903.5015-.033 1.01842.16129 1.48833a1.87985 1.87985 0 0 0 .09885.20583c.33298.58056 1.04057 1.27195 2.60143 1.27195h20.60334c.32778 0 1.92506-.06861 2.66387-1.34584zM28.09547 16.60917l10.11436 18.05H17.9863l10.10917-18.05z"/><path d="M49.4272 33.36083c.78564 1.36167.55151 2.33806.22373 2.91861-.7388 1.27723-2.33088 1.34584-2.64826 1.34584h-8.59513c.31217 0 1.90945-.06861 2.64826-1.34584l.04683-.095a1.62658 1.62658 0 0 0 .11446-.2586c.14533-.40512.18477-.8415.11446-1.26667h5.49423L32.37742 8.94056 29.776 13.61139l-1.68052-2.99778 1.88864-3.35667c.77002-1.37222 1.71694-1.65722 2.3777-1.65722 1.46721 0 2.31008 1.38806 2.46096 1.6625L49.4272 33.36083zm-34.22443 2.9925c.33298.59111 1.05098 1.27195 2.60143 1.27195H2.9188c-1.56085 0-2.26844-.6914-2.60143-1.27195-.7284-1.27722.0052-2.71805.1561-2.9925L18.24643 1.6625C19.01647.29028 19.9634 0 20.62415 0c1.462 0 2.31007 1.38278 2.45055 1.64139l5.02077 8.97222-1.67012 2.99778-5.75957-10.27056L3.12172 34.65917h11.8053c-.08411.50302-.02267 1.02.1769 1.48833a1.87985 1.87985 0 0 0 .09885.20583z"/></g></svg>